#!OML:ASF Y:\EmotionMaleHayes\Project 1\Capture day 1\Session 1\Male1.ASF
:FULLY-SPECIFIED
:DEGREES
1204
root 26.8532 16.2676 -15.5191 386.191 -69.4982 691.885
lowerback 8.2124 4.20312 6.16506
upperback 2.35564 6.03517 0.27161
thorax -1.52793 2.9913 -3.69185
lowerneck -19.8698 5.18608 7.73106
upperneck 28.7089 6.55388 -6.19043
head 13.4943 2.77205 -2.63107
rclavicle -2.56432e-014 -9.54166e-015
rhumerus -16.4543 -2.57703 -64.1197
rradius 49.2701
rwrist -12.447
rhand -16.7536 -35.6107
rfingers 7.12502
rthumb 9.47312 -65.3777
lclavicle -2.56432e-014 -9.54166e-015
lhumerus -43.4545 11.5811 63.8786
lradius 25.1384
lwrist 1.9424
lhand -24.6435 -22.1538
lfingers 7.12502
lthumb 1.8559 7.81784
rfemur 23.2002 -3.47849 24.4571
rtibia 13.8574
rfoot -22.5504 -2.56066
rtoes -30.8976
lfemur -25.3801 15.7578 -18.7684
ltibia 19.6646
lfoot -15.2228 17.5093
ltoes 12.807
1205
root 26.685 16.2683 -15.4455 383.073 -69.7336 695.297
lowerback 7.90665 4.30645 4.93404
upperback 2.39495 6.05 -0.15561
thorax -1.40079 3.00658 -3.42748
lowerneck -19.703 5.22277 8.04349
upperneck 28.4736 6.51292 -6.21876
head 13.3713 2.79147 -2.69972
rclavicle -4.27387e-014 1.66979e-014
rhumerus -17.3711 -2.2203 -64.9015
rradius 50.1694
rwrist -12.3198
rhand -16.3351 -35.7722
rfingers 7.12502
rthumb 9.87684 -65.5205
lclavicle -4.27387e-014 1.66979e-014
lhumerus -43.1638 12.2694 63.7293
lradius 24.1335
lwrist 1.05886
lhand -23.7755 -22.5326
lfingers 7.12502
lthumb 2.69416 7.43018
rfemur 23.1575 -3.17513 23.1486
rtibia 15.0005
rfoot -21.7232 -2.68942
rtoes -31.4321
lfemur -25.219 15.6413 -20.1676
ltibia 20.0751
lfoot -14.4293 16.4995
ltoes 12.4842
1206
root 26.5179 16.2737 -15.3729 380.707 -69.6815 697.922
lowerback 7.68738 4.35181 4.05958
upperback 2.38894 6.02971 -0.457167
thorax -1.34732 2.99896 -3.23626
lowerneck -19.9114 5.16142 7.57703
upperneck 28.5064 6.42943 -5.76413
head 13.3824 2.76301 -2.45233
rclavicle 5.1684e-014 -6.36111e-015
rhumerus -18.3421 -1.7794 -65.6627
rradius 51.0013
rwrist -12.0347
rhand -16.4609 -35.4239
rfingers 7.12502
rthumb 9.75553 -65.178
lclavicle 5.1684e-014 -6.36111e-015
lhumerus -42.8989 12.9143 63.7395
lradius 23.2084
lwrist 0.102831
lhand -23.2258 -22.2023
lfingers 7.12502
lthumb 3.22508 7.75308
rfemur 22.903 -2.80224 22.3846
rtibia 16.3492
rfoot -20.6672 -2.75582
rtoes -31.1328
lfemur -25.257 15.6038 -21.2272
ltibia 20.9064
lfoot -13.5054 14.9564
ltoes 13.4551
1207
root 26.352 16.2816 -15.2932 379.069 -69.5674 699.697
lowerback 7.47088 4.37933 3.5236
upperback 2.44831 6.01325 -0.677135
thorax -1.20004 2.99523 -3.14351
lowerneck -20.292 5.04371 7.22092
upperneck 28.7768 6.27161 -5.46298
head 13.5359 2.68813 -2.30018
rclavicle 5.36719e-014 -3.26007e-014
rhumerus -19.3418 -1.26408 -66.4456
rradius 51.8411
rwrist -11.8241
rhand -16.0359 -34.6371
rfingers 7.12502
rthumb 10.1655 -64.3715
lclavicle 5.36719e-014 -3.26007e-014
lhumerus -42.4963 13.849 63.7316
lradius 22.211
lwrist -1.25032
lhand -22.8077 -21.676
lfingers 7.12502
lthumb 3.62885 8.27287
rfemur 22.4298 -2.51926 21.8215
rtibia 18.2167
rfoot -19.6644 -2.34865
rtoes -30.3976
lfemur -25.1978 15.6059 -21.996
ltibia 21.8807
lfoot -13.2551 13.6602
ltoes 15.7548
1208
root 26.1844 16.2947 -15.2097 376.757 -69.3439 701.992
lowerback 5.05743 4.29458 2.34802
upperback 4.11238 5.72776 -0.425813
thorax 1.68713 2.89538 -1.93122
lowerneck -20.5057 5.07056 7.27793
upperneck 27.3833 6.52754 -6.36706
head 13.0603 2.69817 -2.59123
rclavicle 3.12092e-014 5.56597e-015
rhumerus -17.7757 -0.688989 -66.7604
rradius 52.1019
rwrist -11.5826
rhand -15.5318 -34.1163
rfingers 7.12502
rthumb 10.6518 -63.8263
lclavicle 3.12092e-014 5.56597e-015
lhumerus -40.4665 17.1532 64.2997
lradius 20.9466
lwrist -3.6542
lhand -22.0277 -22.2846
lfingers 7.12502
lthumb 4.382 7.6501
rfemur 22.0697 -2.51289 20.8821
rtibia 20.3097
rfoot -18.545 -1.65201
rtoes -29.0194
lfemur -24.7294 15.3084 -22.9336
ltibia 22.6307
lfoot -13.499 13.0903
ltoes 17.4794
1209
root 26.0216 16.3117 -15.1287 374.374 -68.9889 704.346
lowerback 5.58204 4.27936 1.74622
upperback 3.83094 5.6994 -0.780555
thorax 1.07995 2.86545 -2.02027
lowerneck -20.5176 4.98263 7.11854
upperneck 27.6744 6.35892 -6.02405
head 13.1475 2.65043 -2.46517
rclavicle -3.79679e-014 -1.03368e-014
rhumerus -19.0766 -0.199416 -67.7288
rradius 52.2266
rwrist -10.9488
rhand -16.0978 -32.7711
rfingers 7.12502
rthumb 10.1058 -62.5085
lclavicle -3.79679e-014 -1.03368e-014
lhumerus -40.5371 16.6399 64.6627
lradius 20.4735
lwrist -3.86668
lhand -21.0696 -23.1854
lfingers 7.12502
lthumb 5.30715 6.7281
rfemur 21.6204 -2.67167 19.8563
rtibia 22.4689
rfoot -16.5885 -1.02009
rtoes -27.6932
lfemur -24.1536 14.6427 -23.8531
ltibia 23.1629
lfoot -13.6049 13.4264
ltoes 16.9421
1210
root 25.8645 16.3313 -15.0512 373.556 -68.6301 705.044
lowerback 4.41075 4.20535 1.28209
upperback 4.6979 5.55679 -0.56925
thorax 2.55366 2.79133 -1.40784
lowerneck -20.7782 5.03133 6.77319
upperneck 27.0575 6.58684 -6.24363
head 12.9615 2.6888 -2.43653
rclavicle -9.28324e-014 4.77083e-015
rhumerus -18.9184 0.376801 -68.2336
rradius 52.5405
rwrist -10.2543
rhand -16.7052 -31.369
rfingers 7.12502
rthumb 9.51975 -61.134
lclavicle -9.28324e-014 4.77083e-015
lhumerus -39.334 18.2599 65.4004
lradius 19.7124
lwrist -5.19292
lhand -20.1877 -24.2667
lfingers 7.12502
lthumb 6.15863 5.62376
rfemur 20.7898 -2.68014 19.5422
rtibia 25.0329
rfoot -13.7653 -0.114428
rtoes -22.6619
lfemur -23.5757 13.983 -23.9947
ltibia 23.609
lfoot -13.6784 14.0666
ltoes 16.4235
1211
root 25.7055 16.3509 -14.9762 373.033 -68.2506 705.34
lowerback 5.01774 4.21474 1.17129
upperback 4.42678 5.57407 -0.600688
thorax 1.92796 2.79389 -1.44182
lowerneck -20.5078 4.97727 6.83055
upperneck 27.3382 6.47465 -6.12112
head 13.0086 2.66257 -2.42749
rclavicle -2.26615e-014 8.74653e-015
rhumerus -20.5782 0.957004 -69.067
rradius 52.9524
rwrist -9.56421
rhand -16.7611 -30.7559
rfingers 7.12502
rthumb 9.4659 -60.5233
lclavicle -2.26615e-014 8.74653e-015
lhumerus -39.4529 17.9755 65.932
lradius 19.4428
lwrist -5.69639
lhand -19.9689 -24.232
lfingers 7.12502
lthumb 6.36982 5.65227
rfemur 19.8686 -2.61518 19.4215
rtibia 27.8196
rfoot -12.1231 0.539489
rtoes -20.0622
lfemur -22.7893 13.4828 -23.8943
ltibia 23.9752
lfoot -13.9232 14.0094
ltoes 17.9575
1212
root 25.5657 16.5029 -14.8437 366.544 -67.412 707.959
lowerback 9.57643 3.92327 1.3307
upperback 5.31761 5.15891 -0.876295
thorax 0.370945 2.56264 -2.10527
lowerneck -20.7097 4.86758 7.185
upperneck 27.9624 6.21854 -6.17993
head 13.3042 2.56904 -2.5668
rclavicle 4.47266e-014 -1.51076e-014
rhumerus -21.9225 1.32117 -70.0549
rradius 53.3582
rwrist -8.71577
rhand -16.2485 -30.3304
rfingers 7.12502
rthumb 9.96044 -60.0747
lclavicle 4.47266e-014 -1.51076e-014
lhumerus -39.2816 16.8013 67.0763
lradius 19.5762
lwrist -4.79613
lhand -19.8452 -23.2748
lfingers 7.12502
lthumb 6.48922 6.60582
rfemur 23.0267 -3.38144 17.6038
rtibia 30.3497
rfoot -8.82778 1.6605
rtoes -12.1551
lfemur -16.6363 13.0647 -24.1391
ltibia 22.8484
lfoot -13.8539 12.9615
ltoes 19.5187
